<?xml version="1.0" encoding="iso-8859-1"?>
<!-- Generator: Adobe Illustrator 19.0.0, SVG Export Plug-In . SVG Version: 6.00 Build 0)  -->
<svg version="1.1" id="Layer_1" xmlns="http://www.w3.org/2000/svg" xmlns:xlink="http://www.w3.org/1999/xlink" x="0px" y="0px"
	 viewBox="0 0 301.59 301.59" style="enable-background:new 0 0 301.59 301.59;" xml:space="preserve">
<g>
	<g>
		<g>
			<path d="M132.736,134.651c2.045-8.067,9.365-14.054,18.059-14.054h60.331c15.318,0,27.779-12.462,27.779-27.779
				c0-15.318-12.462-27.779-27.779-27.779H85.823c-10.272,0-18.629-8.357-18.629-18.629c0-10.272,8.357-18.629,18.629-18.629h46.408
				c15.317,0,27.779-12.462,27.779-27.779h-9.15c0,10.272-8.357,18.629-18.629,18.629H85.823c-15.318,0-27.779,12.462-27.779,27.779
				c0,15.318,12.462,27.779,27.779,27.779h125.302c10.272,0,18.629,8.357,18.629,18.629s-8.357,18.629-18.629,18.629h-60.331
				c-13.759,0-25.207,10.056-27.396,23.204H2.353v166.939h296.883V134.651H132.736z M11.503,292.44V143.801h278.583V292.44H11.503z"
				/>
			<path d="M252.959,236.618h27.714V181.06h-41.636v32.354h13.922V236.618z M248.187,204.263V190.21h23.335v37.258h-9.414v-23.204
				H248.187z"/>
			<rect x="104.387" y="273.877" width="92.816" height="9.15"/>
			<rect x="20.852" y="273.877" width="18.564" height="9.15"/>
			<rect x="48.696" y="273.877" width="18.564" height="9.15"/>
			<rect x="206.485" y="273.877" width="18.564" height="9.15"/>
			<rect x="234.33" y="273.877" width="18.564" height="9.15"/>
			<rect x="262.176" y="273.877" width="18.564" height="9.15"/>
			<rect x="76.542" y="273.877" width="18.564" height="9.15"/>
			<rect x="20.852" y="250.672" width="37.126" height="9.15"/>
			<rect x="243.612" y="250.672" width="37.126" height="9.15"/>
			<rect x="71.901" y="250.672" width="18.564" height="9.15"/>
			<rect x="99.746" y="250.672" width="18.564" height="9.15"/>
			<rect x="127.591" y="250.672" width="18.564" height="9.15"/>
			<rect x="155.436" y="250.672" width="18.564" height="9.15"/>
			<rect x="183.281" y="250.672" width="18.564" height="9.15"/>
			<rect x="211.126" y="250.672" width="18.564" height="9.15"/>
			<rect x="57.978" y="227.468" width="18.563" height="9.15"/>
			<rect x="85.823" y="227.468" width="18.563" height="9.15"/>
			<rect x="113.669" y="227.468" width="18.563" height="9.15"/>
			<rect x="141.513" y="227.468" width="18.564" height="9.15"/>
			<rect x="169.359" y="227.468" width="18.563" height="9.15"/>
			<rect x="197.203" y="227.468" width="18.564" height="9.15"/>
			<rect x="225.049" y="227.468" width="18.564" height="9.15"/>
			<rect x="67.26" y="204.263" width="18.564" height="9.15"/>
			<rect x="95.105" y="204.263" width="18.564" height="9.15"/>
			<rect x="122.95" y="204.263" width="18.564" height="9.15"/>
			<rect x="150.795" y="204.263" width="18.564" height="9.15"/>
			<rect x="178.64" y="204.263" width="18.564" height="9.15"/>
			<rect x="206.485" y="204.263" width="18.564" height="9.15"/>
			<rect x="67.26" y="181.06" width="18.564" height="9.15"/>
			<rect x="95.105" y="181.06" width="18.564" height="9.15"/>
			<rect x="122.95" y="181.06" width="18.564" height="9.15"/>
			<rect x="150.795" y="181.06" width="18.564" height="9.15"/>
			<rect x="178.64" y="181.06" width="18.564" height="9.15"/>
			<rect x="206.485" y="181.06" width="18.564" height="9.15"/>
			<rect x="20.852" y="227.468" width="27.845" height="9.15"/>
			<rect x="20.852" y="204.263" width="37.126" height="9.15"/>
			<rect x="20.852" y="181.06" width="37.126" height="9.15"/>
			<rect x="20.852" y="153.214" width="9.282" height="9.15"/>
			<rect x="48.696" y="153.214" width="9.282" height="9.15"/>
			<rect x="76.542" y="153.214" width="9.282" height="9.15"/>
			<rect x="104.387" y="153.214" width="9.282" height="9.15"/>
			<rect x="132.232" y="153.214" width="9.282" height="9.15"/>
			<rect x="160.077" y="153.214" width="9.282" height="9.15"/>
			<rect x="187.921" y="153.214" width="9.282" height="9.15"/>
			<rect x="215.767" y="153.214" width="9.282" height="9.15"/>
			<rect x="243.612" y="153.214" width="9.282" height="9.15"/>
			<rect x="271.457" y="153.214" width="9.282" height="9.15"/>
		</g>
	</g>
</g>
<g>
</g>
<g>
</g>
<g>
</g>
<g>
</g>
<g>
</g>
<g>
</g>
<g>
</g>
<g>
</g>
<g>
</g>
<g>
</g>
<g>
</g>
<g>
</g>
<g>
</g>
<g>
</g>
<g>
</g>
</svg>
