<?xml version="1.0" encoding="iso-8859-1"?>
<!-- Generator: Adobe Illustrator 19.0.0, SVG Export Plug-In . SVG Version: 6.00 Build 0)  -->
<svg version="1.1" id="Layer_1" xmlns="http://www.w3.org/2000/svg" xmlns:xlink="http://www.w3.org/1999/xlink" x="0px" y="0px"
	 viewBox="0 0 470 470" style="enable-background:new 0 0 470 470;" xml:space="preserve">
<g>
	<g>
		<g>
			<circle cx="85" cy="337" r="10"/>
			<circle cx="135" cy="337" r="10"/>
			<circle cx="185" cy="337" r="10"/>
			<circle cx="235" cy="337" r="10"/>
			<circle cx="285" cy="337" r="10"/>
			<circle cx="335" cy="337" r="10"/>
			<circle cx="385" cy="337" r="10"/>
			<path d="M462.5,279.5h-73.655l40.734-231.016c2.633-14.934-7.374-29.225-22.307-31.857c-14.93-2.64-29.224,7.374-31.858,22.307
				l-38.221,216.765c-0.719,4.079,2.005,7.97,6.084,8.688c4.075,0.723,7.969-2.005,8.688-6.083l38.221-216.765
				c1.197-6.789,7.692-11.336,14.481-10.141c6.788,1.197,11.336,7.693,10.139,14.48L373.613,279.5H222.5V42
				c0-6.893,5.607-12.5,12.5-12.5s12.5,5.607,12.5,12.5v215c0,4.143,3.358,7.5,7.5,7.5c4.142,0,7.5-3.357,7.5-7.5V42
				c0-15.163-12.336-27.5-27.5-27.5S207.5,26.837,207.5,42v237.5H96.387L55.193,45.879c-1.197-6.787,3.352-13.283,10.139-14.48
				c6.792-1.194,13.285,3.353,14.481,10.141l38.221,216.765c0.719,4.079,4.611,6.807,8.688,6.083
				c4.079-0.719,6.803-4.609,6.084-8.688L94.586,38.934c-2.633-14.933-16.923-24.945-31.858-22.307
				c-14.933,2.633-24.94,16.924-22.307,31.857L81.155,279.5H7.5c-4.142,0-7.5,3.357-7.5,7.5v91c0,23.639,17.36,43.295,40,46.902V448
				c0,4.143,3.358,7.5,7.5,7.5h70c4.142,0,7.5-3.357,7.5-7.5v-22.5h220V448c0,4.143,3.358,7.5,7.5,7.5h70c4.142,0,7.5-3.357,7.5-7.5
				v-23.098c22.64-3.607,40-23.263,40-46.902v-91C470,282.857,466.642,279.5,462.5,279.5z M110,440.5H55v-15h55V440.5z M415,440.5
				h-55v-15h55V440.5z M455,378c0,17.921-14.58,32.5-32.5,32.5h-375C29.58,410.5,15,395.921,15,378v-83.5h440V378z"/>
		</g>
	</g>
</g>
<g>
</g>
<g>
</g>
<g>
</g>
<g>
</g>
<g>
</g>
<g>
</g>
<g>
</g>
<g>
</g>
<g>
</g>
<g>
</g>
<g>
</g>
<g>
</g>
<g>
</g>
<g>
</g>
<g>
</g>
</svg>
